<svg xmlns="http://www.w3.org/2000/svg" viewBox="0 0 512 512" width="512" height="512"><defs>
  <linearGradient id="g" x1="0" y1="0" x2="1" y2="1">
    <stop offset="0" stop-color="#ffa477"/><stop offset="1" stop-color="#f2683c"/>
  </linearGradient>
  <filter id="ombra" x="-20%" y="-20%" width="140%" height="140%">
    <feDropShadow dx="0" dy="10" stdDeviation="10" flood-color="#7a2a10" flood-opacity=".35"/>
  </filter>
</defs>
<rect x="16" y="16" width="480" height="480" rx="124" fill="url(#g)"/><path d="M196 158 L196 354 L366 256 Z" fill="#fff8f1" stroke="#fff8f1" stroke-width="46"
  stroke-linejoin="round" filter="url(#ombra)"/><g>
  <ellipse cx="228" cy="240" rx="14" ry="19" fill="#2a1208"/>
  <ellipse cx="276" cy="240" rx="14" ry="19" fill="#2a1208"/>
  <circle cx="232" cy="233" r="5" fill="#fff"/><circle cx="280" cy="233" r="5" fill="#fff"/>
  <path d="M232 278 Q252 298 272 278" fill="none" stroke="#2a1208" stroke-width="10" stroke-linecap="round"/>
  <ellipse cx="208" cy="272" rx="13" ry="8" fill="#ff8f78" opacity=".55"/>
  <ellipse cx="296" cy="272" rx="13" ry="8" fill="#ff8f78" opacity=".55"/>
</g><g transform="translate(14 22) rotate(-18 196 140)">
  <rect x="150" y="118" width="104" height="30" rx="7" fill="#2a1208"/>
  <g fill="#fff8f1">
    <path d="M166 118 L184 118 L172 148 L154 148 Z"/><path d="M200 118 L218 118 L206 148 L188 148 Z"/>
    <path d="M234 118 L252 118 L240 148 L222 148 Z"/>
  </g>
  <g transform="rotate(-16 152 112)">
    <rect x="150" y="90" width="104" height="22" rx="6" fill="#2a1208"/>
    <g fill="#fff8f1">
      <path d="M170 90 L186 90 L176 112 L160 112 Z"/><path d="M204 90 L220 90 L210 112 L194 112 Z"/>
      <path d="M238 90 L252 90 L244 112 L228 112 Z"/>
    </g>
  </g>
</g></svg>